<?xml version="1.0" encoding="utf-8"?>
<!-- Generator: Adobe Illustrator 24.3.0, SVG Export Plug-In . SVG Version: 6.00 Build 0)  -->
<svg version="1.1" id="Layer_1" xmlns="http://www.w3.org/2000/svg" xmlns:xlink="http://www.w3.org/1999/xlink" x="0px" y="0px"
	 viewBox="0 0 56.7 56.7" style="enable-background:new 0 0 56.7 56.7;" xml:space="preserve">
<style type="text/css">
	.st0{fill:#9C9B9B;}
	.st1{clip-path:url(#SVGID_2_);}
	.st2{fill:#FFFFFF;}
	.st3{fill:#FDFFFF;}
	.st4{fill:#FDFDFD;}
	.st5{fill:#FCFCFC;}
	.st6{fill:#FBFBFC;}
	.st7{fill:#FAFAFB;}
	.st8{fill:#F9FAFA;}
	.st9{fill:#F9F9FA;}
	.st10{fill:#F8F8F9;}
	.st11{fill:#F7F8F8;}
	.st12{fill:#F6F7F8;}
	.st13{fill:#F5F6F7;}
	.st14{fill:#F4F5F6;}
	.st15{fill:#F3F4F6;}
	.st16{fill:#F3F4F5;}
	.st17{fill:#F2F3F4;}
	.st18{fill:#F1F2F3;}
	.st19{fill:#F0F1F3;}
	.st20{fill:#EFF0F1;}
	.st21{fill:#EEEFF0;}
	.st22{fill:#EDEEEF;}
	.st23{fill:#ECEDEE;}
	.st24{fill:#EBECEE;}
	.st25{fill:#EAEBED;}
	.st26{fill:#E9EBEC;}
	.st27{fill:#E8EAEC;}
	.st28{fill:#E8E9EA;}
	.st29{fill:#E7E8EA;}
	.st30{fill:#E6E8E9;}
	.st31{fill:#E4E6E8;}
	.st32{fill:#E4E6E7;}
	.st33{fill:#E3E5E7;}
	.st34{fill:#E2E4E6;}
	.st35{fill:#E1E3E5;}
	.st36{fill:#E0E2E4;}
	.st37{fill:#DFE2E4;}
	.st38{fill:#DEE1E3;}
	.st39{fill:#DEE0E1;}
	.st40{fill:#DDE0E1;}
	.st41{fill:#DCDEE0;}
	.st42{fill:#DBDDDF;}
	.st43{fill:#D4A730;}
	.st44{filter:url(#b);}
	.st45{mask:url(#c_1_);}
	.st46{opacity:0.75;fill:#D4A730;enable-background:new    ;}
	.st47{mask:url(#d_1_);}
	.st48{fill:#AA5600;}
</style>
<filter  color-interpolation-filters="sRGB" filterUnits="userSpaceOnUse" id="b">
	<feColorMatrix  values="-1 0 0 0 1 0 -1 0 0 1 0 0 -1 0 1 0 0 0 1 0"></feColorMatrix>
</filter>
<path class="st0" d="M28.3,0C44,0,56.7,12.7,56.7,28.3C56.7,44,44,56.7,28.4,56.7S0,44,0,28.3c0,0,0,0,0,0C0,12.7,12.7,0,28.3,0z"/>
<g>
	<defs>
		<circle id="SVGID_1_" cx="28.3" cy="28.3" r="26.3"/>
	</defs>
	<clipPath id="SVGID_2_">
		<use xlink:href="#SVGID_1_"  style="overflow:visible;"/>
	</clipPath>
	<g class="st1">
		<path class="st2" d="M-1.4,49.7l55.6,6.8L54,58H-1.4V49.7z"/>
		<path class="st2" d="M-1.4,48.5l55.7,6.8l-0.1,1.2l-55.6-6.8L-1.4,48.5z"/>
		<path class="st3" d="M-1.4,47.4l55.8,6.8l-0.1,1.2l-55.7-6.8V47.4z"/>
		<path class="st4" d="M-1.4,46.2l56,6.9l-0.1,1.2l-55.8-6.8L-1.4,46.2z"/>
		<path class="st5" d="M-1.4,45l56.1,6.9L54.6,53l-56-6.8V45z"/>
		<path class="st6" d="M-1.4,43.8l56.3,6.9l-0.1,1.2L-1.4,45L-1.4,43.8z"/>
		<path class="st7" d="M-1.4,42.6l56.4,6.9l-0.1,1.2l-56.3-6.9V42.6z"/>
		<path class="st8" d="M-1.4,41.4l56.6,6.9l-0.1,1.2l-56.4-6.9L-1.4,41.4z"/>
		<path class="st9" d="M-1.4,40.2l56.7,6.9l-0.1,1.2l-56.6-6.9L-1.4,40.2z"/>
		<path class="st10" d="M-1.4,39.1l56.8,7l-0.1,1.2l-56.7-6.9V39.1z"/>
		<path class="st11" d="M-1.4,37.9l57,7L55.5,46l-56.8-6.9L-1.4,37.9z"/>
		<path class="st12" d="M-1.4,36.7l57.1,7l-0.1,1.2l-57-7V36.7z"/>
		<path class="st13" d="M-1.4,35.5l57.3,7l-0.1,1.2l-57.1-7L-1.4,35.5z"/>
		<path class="st14" d="M-1.4,34.3l57.4,7l-0.1,1.2l-57.3-7V34.3z"/>
		<path class="st15" d="M-1.4,33.1l57.6,7l-0.1,1.2l-57.4-7L-1.4,33.1z"/>
		<path class="st16" d="M-1.4,31.9L56.4,39l-0.1,1.2l-57.6-7L-1.4,31.9z"/>
		<path class="st17" d="M-1.4,31.4l0.1-0.7l57.8,7.1L56.4,39l-57.7-7.1L-1.4,31.4z"/>
		<path class="st18" d="M56.6,36.7l-0.1,1.2l-57.8-7.1l0.1-1.2L56.6,36.7z"/>
		<path class="st19" d="M56.8,35.5l-0.1,1.2l-57.8-7.1l0.1-1.2L56.8,35.5z"/>
		<path class="st20" d="M56.9,34.3l-0.1,1.2L-1,28.4l0.1-1.2L56.9,34.3z"/>
		<path class="st21" d="M57.1,33.2l-0.1,1.2l-57.8-7.1l0.1-1.2L57.1,33.2z"/>
		<path class="st21" d="M57.2,32l-0.1,1.2l-57.8-7.1l0.1-1.2L57.2,32z"/>
		<path class="st22" d="M57.3,30.8L57.2,32l-57.8-7.1l0.1-1.2L57.3,30.8z"/>
		<path class="st23" d="M57.5,29.6l-0.1,1.2l-57.8-7.1l0.1-1.2L57.5,29.6z"/>
		<path class="st24" d="M57.6,28.5l-0.1,1.2l-57.8-7.1l0.1-1.2L57.6,28.5z"/>
		<path class="st25" d="M57.8,27.3l-0.1,1.2l-57.8-7.1L0,20.2L57.8,27.3z"/>
		<path class="st26" d="M57.9,26.1l-0.1,1.2L0,20.3l0.1-1.2L57.9,26.1z"/>
		<path class="st27" d="M0.2,19.1l0.1-1.2L58,25v0.3l-0.1,0.9L0.2,19.1z"/>
		<path class="st28" d="M0.3,17.9l0.2-1.2l57.6,7V25L0.3,17.9z"/>
		<path class="st29" d="M0.4,16.8l0.1-1.2l57.5,7v1.2L0.4,16.8z"/>
		<path class="st30" d="M0.6,15.6l0.1-1.2l57.3,7v1.2L0.6,15.6z"/>
		<path class="st31" d="M0.7,14.4l0.1-1.2l57.2,7v1.2L0.7,14.4z"/>
		<path class="st32" d="M0.9,13.2L1,12.1l57,7v1.2L0.9,13.2z"/>
		<path class="st33" d="M1,12.1l0.1-1.2l56.9,7V19L1,12.1z"/>
		<path class="st34" d="M1.2,10.9l0.1-1.2L58,16.7v1.2L1.2,10.9z"/>
		<path class="st35" d="M1.3,9.7l0.1-1.2L58,15.5v1.2L1.3,9.7z"/>
		<path class="st36" d="M1.4,8.6l0.2-1.2L58,14.3v1.2L1.4,8.6z"/>
		<path class="st37" d="M1.6,7.4l0.1-1.2L58,13.1v1.2L1.6,7.4z"/>
		<path class="st38" d="M1.7,6.2l0.1-1.2L58,11.9v1.2L1.7,6.2z"/>
		<path class="st39" d="M1.9,5.1L2,3.9l56,6.8v1.2L1.9,5.1z"/>
		<path class="st40" d="M2,3.9l0.1-1.2L58,9.6v1.2L2,3.9z"/>
		<path class="st41" d="M2.2,2.7l0.1-1.2L58,8.4v1.2L2.2,2.7z"/>
		<g>
			<path class="st42" d="M2.3,1.6l0.1-1.2L58,7.2v1.2L2.3,1.6z"/>
			<path class="st42" d="M2.4,0.4l0.2-1.8H58v8.5L2.4,0.4z"/>
		</g>
	</g>
</g>
<circle class="st43" cx="28.3" cy="28.3" r="20.3"/>
<defs>
	<filter id="Adobe_OpacityMaskFilter" filterUnits="userSpaceOnUse" x="8" y="8" width="40.6" height="40.6">
		<feColorMatrix  type="matrix" values="1 0 0 0 0  0 1 0 0 0  0 0 1 0 0  0 0 0 1 0"/>
	</filter>
</defs>
<mask maskUnits="userSpaceOnUse" x="8" y="8" width="40.6" height="40.6" id="c_1_">
	<g class="st44">
		
			<image style="overflow:visible;enable-background:new    ;" width="1697" height="1697" xlink:href="F10DAA24.png"  transform="matrix(-2.000000e-02 0 0 -2.000000e-02 48.8 48.89)">
		</image>
	</g>
</mask>
<g class="st45">
	<circle class="st46" cx="28.3" cy="28.3" r="20.3"/>
</g>
<g>
	<circle class="st43" cx="28.3" cy="28.3" r="20.3"/>
	<circle class="st43" cx="28.3" cy="28.3" r="20.3"/>
	<circle class="st43" cx="28.3" cy="28.3" r="20.3"/>
	<circle class="st43" cx="28.3" cy="28.3" r="20.3"/>
	<circle class="st43" cx="28.3" cy="28.3" r="20.3"/>
	<circle class="st43" cx="28.3" cy="28.3" r="20.3"/>
	<circle class="st43" cx="28.3" cy="28.3" r="20.3"/>
	<circle class="st43" cx="28.3" cy="28.3" r="20.3"/>
	<circle class="st43" cx="28.3" cy="28.3" r="20.3"/>
	<circle class="st43" cx="28.3" cy="28.3" r="20.3"/>
	<circle class="st43" cx="28.3" cy="28.3" r="20.3"/>
	<circle class="st43" cx="28.3" cy="28.3" r="20.3"/>
	<circle class="st43" cx="28.3" cy="28.3" r="20.3"/>
	<circle class="st43" cx="28.3" cy="28.3" r="20.3"/>
	<circle class="st43" cx="28.3" cy="28.3" r="20.3"/>
	<circle class="st43" cx="28.3" cy="28.3" r="20.3"/>
	<circle class="st43" cx="28.3" cy="28.3" r="20.3"/>
	<circle class="st43" cx="28.3" cy="28.3" r="20.3"/>
	<circle class="st43" cx="28.3" cy="28.3" r="20.3"/>
	<circle class="st43" cx="28.3" cy="28.3" r="20.3"/>
	<circle class="st43" cx="28.3" cy="28.3" r="20.3"/>
	<circle class="st43" cx="28.3" cy="28.3" r="20.3"/>
	<circle class="st43" cx="28.3" cy="28.3" r="20.3"/>
	<circle class="st43" cx="28.3" cy="28.3" r="20.3"/>
	<circle class="st43" cx="28.3" cy="28.3" r="20.3"/>
	<circle class="st43" cx="28.3" cy="28.3" r="20.3"/>
	<circle class="st43" cx="28.3" cy="28.3" r="20.3"/>
	<circle class="st43" cx="28.3" cy="28.3" r="20.3"/>
	<circle class="st43" cx="28.3" cy="28.3" r="20.3"/>
	<circle class="st43" cx="28.3" cy="28.3" r="20.3"/>
	<circle class="st43" cx="28.3" cy="28.3" r="20.3"/>
	<circle class="st43" cx="28.3" cy="28.3" r="20.3"/>
	<circle class="st43" cx="28.3" cy="28.3" r="20.3"/>
	<circle class="st43" cx="28.3" cy="28.3" r="20.3"/>
	<circle class="st43" cx="28.3" cy="28.3" r="20.3"/>
	<circle class="st43" cx="28.3" cy="28.3" r="20.3"/>
	<circle class="st43" cx="28.3" cy="28.3" r="20.3"/>
	<circle class="st43" cx="28.3" cy="28.3" r="20.3"/>
	<circle class="st43" cx="28.3" cy="28.3" r="20.3"/>
	<circle class="st43" cx="28.3" cy="28.3" r="20.3"/>
	<circle class="st43" cx="28.3" cy="28.3" r="20.3"/>
</g>
<defs>
	<filter id="Adobe_OpacityMaskFilter_1_" filterUnits="userSpaceOnUse" x="8" y="8" width="40.6" height="40.6">
		<feColorMatrix  type="matrix" values="1 0 0 0 0  0 1 0 0 0  0 0 1 0 0  0 0 0 1 0"/>
	</filter>
</defs>
<mask maskUnits="userSpaceOnUse" x="8" y="8" width="40.6" height="40.6" id="d_1_">
	<g class="st44">
		
			<image style="overflow:visible;enable-background:new    ;" width="1698" height="1697" xlink:href="F10DAA25.png"  transform="matrix(-2.000000e-02 0 0 -2.000000e-02 48.85 48.84)">
		</image>
	</g>
</mask>
<g class="st47">
	<circle class="st46" cx="28.3" cy="28.3" r="20.3"/>
</g>
<circle class="st48" cx="28.4" cy="28.3" r="20.3"/>
<path class="st2" d="M44.3,29.2v-4.7c0,0-6.1-1-7.4,2.6c-0.6,1.6-3.1,2.7-3.4-0.4c-0.2-2-1.5-7.1-6.4-7.1c-3.5,0-5.6,3.6-5.9,5.2
	s-1,1.7-2.5,1.6c0.3-1.9,0.5-4.5,0.5-4.5L9,28.7l10.2,6.9l-0.5-4.4c0,0,5.3,0.5,6.4-3.2c0.7-1.9,2.1-6.1,4-0.1
	c0.5,2.3,1.7,5.7,5.5,5.8c2,0,3.9-0.2,5.4-3C40.5,29.9,40.7,28.9,44.3,29.2z"/>
</svg>
